<?xml version="1.0" encoding="UTF-8" standalone="no"?>
<!DOCTYPE svg PUBLIC "-//W3C//DTD SVG 1.1//EN" "http://www.w3.org/Graphics/SVG/1.1/DTD/svg11.dtd">
<svg version="1.1" xmlns="http://www.w3.org/2000/svg" xmlns:xlink="http://www.w3.org/1999/xlink" preserveAspectRatio="xMidYMid meet" viewBox="0 0 640 640" width="640" height="640"><defs><path d="M640 320C640 496.61 496.61 640 320 640C143.39 640 0 496.61 0 320C0 143.39 143.39 0 320 0C496.61 0 640 143.39 640 320Z" id="b7xemHslua"></path><radialGradient id="gradientb1k003VgGU" gradientUnits="userSpaceOnUse" cx="322.45" cy="148.75" dx="322.45" dy="788.75" r="640"><stop style="stop-color: #2afae2;stop-opacity: 1" offset="0%"></stop><stop style="stop-color: #2a8dfa;stop-opacity: 1" offset="100%"></stop></radialGradient><path d="M467.66 194.11L468.43 194.19L469.2 194.31L469.96 194.45L470.72 194.62L471.48 194.83L472.23 195.06L472.96 195.32L473.7 195.61L474.42 195.93L475.13 196.28L475.83 196.66L476.51 197.07L477.19 197.51L477.85 197.98L478.49 198.47L479.12 199L479.73 199.56L480.33 200.14L494.78 214.97L495.35 215.58L495.89 216.21L496.39 216.85L496.87 217.51L497.33 218.18L497.75 218.86L498.14 219.56L498.5 220.27L498.83 220.99L499.13 221.72L499.4 222.46L499.64 223.2L499.86 223.96L500.04 224.72L500.19 225.48L500.31 226.25L500.41 227.02L500.47 227.8L500.51 228.57L500.51 229.35L500.49 230.12L500.43 230.9L500.35 231.67L500.23 232.44L500.09 233.21L499.92 233.97L499.71 234.72L499.48 235.47L499.22 236.21L498.93 236.94L498.61 237.66L498.26 238.37L497.88 239.07L497.47 239.76L497.03 240.43L496.57 241.09L496.07 241.73L495.54 242.36L494.99 242.97L494.4 243.57L293.58 439.2L276.64 456.36L276.27 456.72L275.89 457.06L275.5 457.39L275.1 457.69L274.69 457.98L274.27 458.25L273.84 458.5L273.41 458.73L272.97 458.95L272.52 459.14L272.07 459.32L271.61 459.48L271.14 459.62L270.68 459.74L270.2 459.84L269.73 459.93L269.25 460L268.78 460.05L268.3 460.08L267.82 460.09L267.33 460.08L266.85 460.06L266.38 460.02L265.9 459.96L265.42 459.88L264.95 459.78L264.48 459.66L264.02 459.53L263.55 459.38L263.1 459.21L262.65 459.02L262.2 458.81L261.77 458.58L261.34 458.34L260.91 458.08L260.5 457.79L260.09 457.5L259.7 457.18L259.31 456.84L258.94 456.49L158.07 357.08L157.71 356.71L157.37 356.33L157.05 355.94L156.74 355.54L156.46 355.13L156.19 354.71L155.94 354.28L155.71 353.85L155.49 353.41L155.3 352.96L155.12 352.51L154.96 352.05L154.82 351.59L154.7 351.12L154.59 350.65L154.51 350.17L154.44 349.7L154.39 349.22L154.36 348.74L154.35 348.26L154.35 347.78L154.38 347.3L154.42 346.82L154.48 346.34L154.56 345.87L154.66 345.4L154.77 344.93L154.91 344.46L155.06 344L155.23 343.55L155.42 343.09L155.63 342.65L155.85 342.21L156.1 341.78L156.36 341.36L156.64 340.95L156.94 340.54L157.26 340.15L157.6 339.76L157.95 339.39L188.43 308.5L188.8 308.14L189.19 307.79L189.58 307.47L189.98 307.17L190.39 306.88L190.81 306.61L191.23 306.36L191.67 306.13L192.11 305.91L192.56 305.72L193.01 305.54L193.47 305.38L193.93 305.24L194.4 305.12L194.87 305.02L195.35 304.93L195.82 304.86L196.3 304.81L196.78 304.78L197.26 304.77L197.74 304.78L198.22 304.8L198.7 304.84L199.18 304.9L199.65 304.98L200.13 305.08L200.6 305.2L201.06 305.33L201.52 305.48L201.98 305.65L202.43 305.84L202.87 306.05L203.31 306.28L203.74 306.52L204.16 306.78L204.58 307.06L204.98 307.36L205.38 307.68L205.76 308.02L206.14 308.37L272.8 374.07L451.73 199.77L452.34 199.2L452.97 198.66L453.61 198.15L454.27 197.67L454.94 197.22L455.62 196.8L456.32 196.41L457.03 196.04L457.75 195.71L458.48 195.41L459.22 195.14L459.96 194.9L460.72 194.69L461.48 194.5L462.24 194.35L463.01 194.23L463.78 194.13L464.55 194.07L465.33 194.04L466.11 194.03L466.88 194.06L467.66 194.11Z" id="bpBhYXmCs"></path></defs><g><g><g><use xlink:href="#b7xemHslua" opacity="1" fill="url(#gradientb1k003VgGU)"></use></g><g><use xlink:href="#bpBhYXmCs" opacity="1" fill="#fffafa" fill-opacity="1"></use></g></g></g></svg>